<mxfile host="app.diagrams.net" modified="2020-11-17T16:33:23.749Z" agent="5.0 (Windows NT 10.0; Win64; x64) AppleWebKit/537.36 (KHTML, like Gecko) Chrome/86.0.4240.183 Safari/537.36" etag="dmOr1gIzpmKFz6yPlvyu" version="13.9.8" type="github">
  <diagram id="vQ19BksNQbtDB_zFupzJ" name="Page-1">
    <mxGraphModel dx="2752" dy="966" grid="1" gridSize="10" guides="1" tooltips="1" connect="1" arrows="1" fold="1" page="1" pageScale="1" pageWidth="850" pageHeight="1100" math="0" shadow="0">
      <root>
        <mxCell id="0" />
        <mxCell id="1" parent="0" />
        <mxCell id="37ea-AvrcOFvkeTaKJDR-2" value="Event" style="rounded=0;whiteSpace=wrap;html=1;" parent="1" vertex="1">
          <mxGeometry x="360" y="920" width="160" height="80" as="geometry" />
        </mxCell>
        <mxCell id="37ea-AvrcOFvkeTaKJDR-3" value="Location" style="rounded=0;whiteSpace=wrap;html=1;" parent="1" vertex="1">
          <mxGeometry x="-120" y="920" width="160" height="80" as="geometry" />
        </mxCell>
        <mxCell id="37ea-AvrcOFvkeTaKJDR-4" value="Admin" style="rounded=0;whiteSpace=wrap;html=1;" parent="1" vertex="1">
          <mxGeometry x="360" y="520" width="160" height="80" as="geometry" />
        </mxCell>
        <mxCell id="37ea-AvrcOFvkeTaKJDR-5" value="Super_Admin" style="rounded=0;whiteSpace=wrap;html=1;" parent="1" vertex="1">
          <mxGeometry x="-120" y="520" width="160" height="80" as="geometry" />
        </mxCell>
        <mxCell id="37ea-AvrcOFvkeTaKJDR-6" value="Person" style="rounded=0;whiteSpace=wrap;html=1;" parent="1" vertex="1">
          <mxGeometry x="840" y="520" width="160" height="80" as="geometry" />
        </mxCell>
        <mxCell id="37ea-AvrcOFvkeTaKJDR-7" value="Held_At" style="rhombus;whiteSpace=wrap;html=1;" parent="1" vertex="1">
          <mxGeometry x="160" y="920" width="80" height="80" as="geometry" />
        </mxCell>
        <mxCell id="37ea-AvrcOFvkeTaKJDR-11" value="Administers" style="rhombus;whiteSpace=wrap;html=1;" parent="1" vertex="1">
          <mxGeometry x="400" y="720" width="80" height="80" as="geometry" />
        </mxCell>
        <mxCell id="37ea-AvrcOFvkeTaKJDR-17" value="Attends" style="rhombus;whiteSpace=wrap;html=1;" parent="1" vertex="1">
          <mxGeometry x="880" y="920" width="80" height="80" as="geometry" />
        </mxCell>
        <mxCell id="37ea-AvrcOFvkeTaKJDR-21" value="User" style="rounded=0;whiteSpace=wrap;html=1;" parent="1" vertex="1">
          <mxGeometry x="360" y="80" width="160" height="80" as="geometry" />
        </mxCell>
        <mxCell id="37ea-AvrcOFvkeTaKJDR-22" value="ISA" style="triangle;whiteSpace=wrap;html=1;direction=north;" parent="1" vertex="1">
          <mxGeometry x="400" y="200" width="80" height="80" as="geometry" />
        </mxCell>
        <mxCell id="37ea-AvrcOFvkeTaKJDR-23" value="" style="endArrow=none;html=1;strokeWidth=3;entryX=0.5;entryY=1;entryDx=0;entryDy=0;exitX=1;exitY=0.5;exitDx=0;exitDy=0;" parent="1" source="37ea-AvrcOFvkeTaKJDR-22" target="37ea-AvrcOFvkeTaKJDR-21" edge="1">
          <mxGeometry width="50" height="50" relative="1" as="geometry">
            <mxPoint x="360" y="190" as="sourcePoint" />
            <mxPoint x="410" y="140" as="targetPoint" />
          </mxGeometry>
        </mxCell>
        <mxCell id="37ea-AvrcOFvkeTaKJDR-25" value="" style="endArrow=none;html=1;strokeWidth=1;entryX=0;entryY=0.25;entryDx=0;entryDy=0;exitX=0.75;exitY=0;exitDx=0;exitDy=0;" parent="1" source="37ea-AvrcOFvkeTaKJDR-5" target="37ea-AvrcOFvkeTaKJDR-22" edge="1">
          <mxGeometry width="50" height="50" relative="1" as="geometry">
            <mxPoint x="370" y="300" as="sourcePoint" />
            <mxPoint x="420" y="250" as="targetPoint" />
          </mxGeometry>
        </mxCell>
        <mxCell id="37ea-AvrcOFvkeTaKJDR-26" value="" style="endArrow=none;html=1;strokeWidth=1;entryX=0;entryY=0.75;entryDx=0;entryDy=0;exitX=0.25;exitY=0;exitDx=0;exitDy=0;" parent="1" source="37ea-AvrcOFvkeTaKJDR-6" target="37ea-AvrcOFvkeTaKJDR-22" edge="1">
          <mxGeometry width="50" height="50" relative="1" as="geometry">
            <mxPoint x="480" y="300" as="sourcePoint" />
            <mxPoint x="530" y="250" as="targetPoint" />
          </mxGeometry>
        </mxCell>
        <mxCell id="37ea-AvrcOFvkeTaKJDR-31" value="" style="endArrow=none;html=1;strokeWidth=1;entryX=0.5;entryY=0;entryDx=0;entryDy=0;exitX=0.5;exitY=1;exitDx=0;exitDy=0;startArrow=none;startFill=0;" parent="1" source="37ea-AvrcOFvkeTaKJDR-4" target="37ea-AvrcOFvkeTaKJDR-11" edge="1">
          <mxGeometry width="50" height="50" relative="1" as="geometry">
            <mxPoint x="450" y="730" as="sourcePoint" />
            <mxPoint x="500" y="680" as="targetPoint" />
          </mxGeometry>
        </mxCell>
        <mxCell id="37ea-AvrcOFvkeTaKJDR-32" value="" style="endArrow=classic;html=1;strokeWidth=3;entryX=0.5;entryY=1;entryDx=0;entryDy=0;exitX=0.5;exitY=0;exitDx=0;exitDy=0;endFill=1;startArrow=none;startFill=0;" parent="1" source="37ea-AvrcOFvkeTaKJDR-2" target="37ea-AvrcOFvkeTaKJDR-11" edge="1">
          <mxGeometry width="50" height="50" relative="1" as="geometry">
            <mxPoint x="430" y="800" as="sourcePoint" />
            <mxPoint x="440" y="800" as="targetPoint" />
          </mxGeometry>
        </mxCell>
        <mxCell id="37ea-AvrcOFvkeTaKJDR-33" value="" style="endArrow=none;html=1;strokeWidth=1;entryX=0.5;entryY=1;entryDx=0;entryDy=0;exitX=0.5;exitY=0;exitDx=0;exitDy=0;" parent="1" source="37ea-AvrcOFvkeTaKJDR-17" target="37ea-AvrcOFvkeTaKJDR-6" edge="1">
          <mxGeometry width="50" height="50" relative="1" as="geometry">
            <mxPoint x="900" y="780" as="sourcePoint" />
            <mxPoint x="950" y="730" as="targetPoint" />
          </mxGeometry>
        </mxCell>
        <mxCell id="37ea-AvrcOFvkeTaKJDR-34" value="" style="endArrow=none;html=1;strokeWidth=1;entryX=0;entryY=0.5;entryDx=0;entryDy=0;exitX=1;exitY=0.5;exitDx=0;exitDy=0;" parent="1" source="37ea-AvrcOFvkeTaKJDR-2" target="37ea-AvrcOFvkeTaKJDR-17" edge="1">
          <mxGeometry width="50" height="50" relative="1" as="geometry">
            <mxPoint x="620" y="990" as="sourcePoint" />
            <mxPoint x="670" y="940" as="targetPoint" />
          </mxGeometry>
        </mxCell>
        <mxCell id="37ea-AvrcOFvkeTaKJDR-35" value="" style="endArrow=none;html=1;strokeWidth=1;entryX=0;entryY=0.5;entryDx=0;entryDy=0;exitX=1;exitY=0.5;exitDx=0;exitDy=0;" parent="1" source="37ea-AvrcOFvkeTaKJDR-3" target="37ea-AvrcOFvkeTaKJDR-7" edge="1">
          <mxGeometry width="50" height="50" relative="1" as="geometry">
            <mxPoint x="180" y="980" as="sourcePoint" />
            <mxPoint x="230" y="930" as="targetPoint" />
          </mxGeometry>
        </mxCell>
        <mxCell id="37ea-AvrcOFvkeTaKJDR-36" value="" style="endArrow=classic;html=1;strokeWidth=3;exitX=0;exitY=0.5;exitDx=0;exitDy=0;entryX=1;entryY=0.5;entryDx=0;entryDy=0;" parent="1" source="37ea-AvrcOFvkeTaKJDR-2" target="37ea-AvrcOFvkeTaKJDR-7" edge="1">
          <mxGeometry width="50" height="50" relative="1" as="geometry">
            <mxPoint x="270" y="1100" as="sourcePoint" />
            <mxPoint x="320" y="1050" as="targetPoint" />
          </mxGeometry>
        </mxCell>
        <mxCell id="37ea-AvrcOFvkeTaKJDR-37" value="User_ID" style="ellipse;whiteSpace=wrap;html=1;fontStyle=4" parent="1" vertex="1">
          <mxGeometry x="300" y="30" width="80" height="20" as="geometry" />
        </mxCell>
        <mxCell id="37ea-AvrcOFvkeTaKJDR-38" value="" style="endArrow=none;html=1;strokeWidth=1;fontSize=11;entryX=0.5;entryY=1;entryDx=0;entryDy=0;exitX=0.25;exitY=0;exitDx=0;exitDy=0;" parent="1" source="37ea-AvrcOFvkeTaKJDR-21" target="37ea-AvrcOFvkeTaKJDR-37" edge="1">
          <mxGeometry width="50" height="50" relative="1" as="geometry">
            <mxPoint x="280" y="100" as="sourcePoint" />
            <mxPoint x="330" y="50" as="targetPoint" />
          </mxGeometry>
        </mxCell>
        <mxCell id="37ea-AvrcOFvkeTaKJDR-39" value="Password" style="ellipse;whiteSpace=wrap;html=1;fontStyle=0" parent="1" vertex="1">
          <mxGeometry x="500" y="30" width="80" height="20" as="geometry" />
        </mxCell>
        <mxCell id="37ea-AvrcOFvkeTaKJDR-40" value="" style="endArrow=none;html=1;strokeWidth=1;fontSize=11;entryX=0.5;entryY=1;entryDx=0;entryDy=0;exitX=0.75;exitY=0;exitDx=0;exitDy=0;" parent="1" source="37ea-AvrcOFvkeTaKJDR-21" target="37ea-AvrcOFvkeTaKJDR-39" edge="1">
          <mxGeometry width="50" height="50" relative="1" as="geometry">
            <mxPoint x="560" y="120" as="sourcePoint" />
            <mxPoint x="610" y="70" as="targetPoint" />
          </mxGeometry>
        </mxCell>
        <mxCell id="37ea-AvrcOFvkeTaKJDR-41" value="Administers" style="rhombus;whiteSpace=wrap;html=1;fontSize=11;" parent="1" vertex="1">
          <mxGeometry x="-80" y="720" width="80" height="80" as="geometry" />
        </mxCell>
        <mxCell id="37ea-AvrcOFvkeTaKJDR-42" value="" style="endArrow=none;html=1;strokeWidth=1;fontSize=11;entryX=0.5;entryY=1;entryDx=0;entryDy=0;exitX=0.5;exitY=0;exitDx=0;exitDy=0;endFill=0;" parent="1" source="37ea-AvrcOFvkeTaKJDR-41" target="37ea-AvrcOFvkeTaKJDR-5" edge="1">
          <mxGeometry width="50" height="50" relative="1" as="geometry">
            <mxPoint x="-30" y="670" as="sourcePoint" />
            <mxPoint x="20" y="620" as="targetPoint" />
          </mxGeometry>
        </mxCell>
        <mxCell id="37ea-AvrcOFvkeTaKJDR-43" value="" style="endArrow=none;html=1;strokeWidth=3;fontSize=11;entryX=0.5;entryY=0;entryDx=0;entryDy=0;exitX=0.5;exitY=1;exitDx=0;exitDy=0;startArrow=classic;startFill=1;endFill=0;" parent="1" source="37ea-AvrcOFvkeTaKJDR-41" target="37ea-AvrcOFvkeTaKJDR-3" edge="1">
          <mxGeometry width="50" height="50" relative="1" as="geometry">
            <mxPoint x="-40" y="800" as="sourcePoint" />
            <mxPoint x="30" y="820" as="targetPoint" />
          </mxGeometry>
        </mxCell>
        <mxCell id="37ea-AvrcOFvkeTaKJDR-44" value="Rating" style="ellipse;whiteSpace=wrap;html=1;fontStyle=0" parent="1" vertex="1">
          <mxGeometry x="940" y="1030" width="80" height="20" as="geometry" />
        </mxCell>
        <mxCell id="37ea-AvrcOFvkeTaKJDR-45" value="Comment" style="ellipse;whiteSpace=wrap;html=1;fontStyle=0" parent="1" vertex="1">
          <mxGeometry x="820" y="1030" width="80" height="20" as="geometry" />
        </mxCell>
        <mxCell id="37ea-AvrcOFvkeTaKJDR-48" value="" style="endArrow=none;html=1;strokeWidth=1;fontSize=11;entryX=0.5;entryY=0;entryDx=0;entryDy=0;exitX=0;exitY=1;exitDx=0;exitDy=0;" parent="1" source="37ea-AvrcOFvkeTaKJDR-17" target="37ea-AvrcOFvkeTaKJDR-45" edge="1">
          <mxGeometry width="50" height="50" relative="1" as="geometry">
            <mxPoint x="730" y="1000" as="sourcePoint" />
            <mxPoint x="780" y="950" as="targetPoint" />
          </mxGeometry>
        </mxCell>
        <mxCell id="37ea-AvrcOFvkeTaKJDR-49" value="" style="endArrow=none;html=1;strokeWidth=1;fontSize=11;entryX=1;entryY=1;entryDx=0;entryDy=0;exitX=0.5;exitY=0;exitDx=0;exitDy=0;" parent="1" source="37ea-AvrcOFvkeTaKJDR-44" target="37ea-AvrcOFvkeTaKJDR-17" edge="1">
          <mxGeometry width="50" height="50" relative="1" as="geometry">
            <mxPoint x="1010" y="1000" as="sourcePoint" />
            <mxPoint x="1060" y="950" as="targetPoint" />
          </mxGeometry>
        </mxCell>
        <mxCell id="37ea-AvrcOFvkeTaKJDR-50" value="Event_ID" style="ellipse;whiteSpace=wrap;html=1;fontStyle=4" parent="1" vertex="1">
          <mxGeometry x="300" y="1030" width="80" height="20" as="geometry" />
        </mxCell>
        <mxCell id="37ea-AvrcOFvkeTaKJDR-51" value="" style="endArrow=none;html=1;strokeWidth=1;fontSize=11;entryX=0.25;entryY=1;entryDx=0;entryDy=0;exitX=1;exitY=0;exitDx=0;exitDy=0;" parent="1" source="37ea-AvrcOFvkeTaKJDR-50" target="37ea-AvrcOFvkeTaKJDR-2" edge="1">
          <mxGeometry width="50" height="50" relative="1" as="geometry">
            <mxPoint x="310" y="1050" as="sourcePoint" />
            <mxPoint x="360" y="1000" as="targetPoint" />
          </mxGeometry>
        </mxCell>
        <mxCell id="37ea-AvrcOFvkeTaKJDR-52" value="Name" style="ellipse;whiteSpace=wrap;html=1;fontStyle=0" parent="1" vertex="1">
          <mxGeometry x="400" y="1030" width="80" height="20" as="geometry" />
        </mxCell>
        <mxCell id="37ea-AvrcOFvkeTaKJDR-53" value="" style="endArrow=none;html=1;strokeWidth=1;fontSize=11;entryX=0.5;entryY=1;entryDx=0;entryDy=0;exitX=0.5;exitY=0;exitDx=0;exitDy=0;" parent="1" source="37ea-AvrcOFvkeTaKJDR-52" target="37ea-AvrcOFvkeTaKJDR-2" edge="1">
          <mxGeometry width="50" height="50" relative="1" as="geometry">
            <mxPoint x="410" y="1050" as="sourcePoint" />
            <mxPoint x="460" y="1000" as="targetPoint" />
          </mxGeometry>
        </mxCell>
        <mxCell id="37ea-AvrcOFvkeTaKJDR-55" value="Phone" style="ellipse;whiteSpace=wrap;html=1;fontStyle=0" parent="1" vertex="1">
          <mxGeometry x="300" y="470" width="80" height="20" as="geometry" />
        </mxCell>
        <mxCell id="37ea-AvrcOFvkeTaKJDR-56" value="" style="endArrow=none;html=1;strokeWidth=1;fontSize=11;entryX=1;entryY=1;entryDx=0;entryDy=0;exitX=0.25;exitY=0;exitDx=0;exitDy=0;" parent="1" source="37ea-AvrcOFvkeTaKJDR-4" target="37ea-AvrcOFvkeTaKJDR-55" edge="1">
          <mxGeometry width="50" height="50" relative="1" as="geometry">
            <mxPoint x="310" y="570" as="sourcePoint" />
            <mxPoint x="360" y="520" as="targetPoint" />
          </mxGeometry>
        </mxCell>
        <mxCell id="37ea-AvrcOFvkeTaKJDR-57" value="Email" style="ellipse;whiteSpace=wrap;html=1;fontStyle=0" parent="1" vertex="1">
          <mxGeometry x="500" y="470" width="80" height="20" as="geometry" />
        </mxCell>
        <mxCell id="37ea-AvrcOFvkeTaKJDR-58" value="" style="endArrow=none;html=1;strokeWidth=1;fontSize=11;entryX=0;entryY=1;entryDx=0;entryDy=0;exitX=0.75;exitY=0;exitDx=0;exitDy=0;" parent="1" source="37ea-AvrcOFvkeTaKJDR-4" target="37ea-AvrcOFvkeTaKJDR-57" edge="1">
          <mxGeometry width="50" height="50" relative="1" as="geometry">
            <mxPoint x="450" y="500" as="sourcePoint" />
            <mxPoint x="500" y="450" as="targetPoint" />
          </mxGeometry>
        </mxCell>
        <mxCell id="37ea-AvrcOFvkeTaKJDR-59" value="Description" style="ellipse;whiteSpace=wrap;html=1;fontStyle=0" parent="1" vertex="1">
          <mxGeometry x="500" y="1030" width="80" height="20" as="geometry" />
        </mxCell>
        <mxCell id="37ea-AvrcOFvkeTaKJDR-60" value="" style="endArrow=none;html=1;strokeWidth=1;fontSize=11;entryX=0;entryY=0;entryDx=0;entryDy=0;exitX=0.75;exitY=1;exitDx=0;exitDy=0;" parent="1" source="37ea-AvrcOFvkeTaKJDR-2" target="37ea-AvrcOFvkeTaKJDR-59" edge="1">
          <mxGeometry width="50" height="50" relative="1" as="geometry">
            <mxPoint x="480" y="1120" as="sourcePoint" />
            <mxPoint x="530" y="1070" as="targetPoint" />
          </mxGeometry>
        </mxCell>
        <mxCell id="37ea-AvrcOFvkeTaKJDR-61" value="Time" style="ellipse;whiteSpace=wrap;html=1;fontStyle=0" parent="1" vertex="1">
          <mxGeometry x="260" y="1000" width="80" height="20" as="geometry" />
        </mxCell>
        <mxCell id="37ea-AvrcOFvkeTaKJDR-62" value="" style="endArrow=none;html=1;strokeWidth=1;fontSize=11;entryX=1;entryY=0;entryDx=0;entryDy=0;exitX=0;exitY=0.75;exitDx=0;exitDy=0;" parent="1" source="37ea-AvrcOFvkeTaKJDR-2" target="37ea-AvrcOFvkeTaKJDR-61" edge="1">
          <mxGeometry width="50" height="50" relative="1" as="geometry">
            <mxPoint x="310" y="940" as="sourcePoint" />
            <mxPoint x="360" y="890" as="targetPoint" />
          </mxGeometry>
        </mxCell>
        <mxCell id="37ea-AvrcOFvkeTaKJDR-63" value="Date" style="ellipse;whiteSpace=wrap;html=1;fontStyle=0" parent="1" vertex="1">
          <mxGeometry x="260" y="900" width="80" height="20" as="geometry" />
        </mxCell>
        <mxCell id="37ea-AvrcOFvkeTaKJDR-64" value="" style="endArrow=none;html=1;strokeWidth=1;fontSize=11;entryX=1;entryY=1;entryDx=0;entryDy=0;exitX=0;exitY=0.25;exitDx=0;exitDy=0;" parent="1" source="37ea-AvrcOFvkeTaKJDR-2" target="37ea-AvrcOFvkeTaKJDR-63" edge="1">
          <mxGeometry width="50" height="50" relative="1" as="geometry">
            <mxPoint x="450" y="930" as="sourcePoint" />
            <mxPoint x="500" y="880" as="targetPoint" />
          </mxGeometry>
        </mxCell>
        <mxCell id="37ea-AvrcOFvkeTaKJDR-65" value="Category" style="ellipse;whiteSpace=wrap;html=1;fontStyle=0" parent="1" vertex="1">
          <mxGeometry x="540" y="910" width="80" height="20" as="geometry" />
        </mxCell>
        <mxCell id="37ea-AvrcOFvkeTaKJDR-66" value="" style="endArrow=none;html=1;strokeWidth=1;fontSize=11;entryX=0;entryY=1;entryDx=0;entryDy=0;exitX=1;exitY=0.25;exitDx=0;exitDy=0;" parent="1" source="37ea-AvrcOFvkeTaKJDR-2" target="37ea-AvrcOFvkeTaKJDR-65" edge="1">
          <mxGeometry width="50" height="50" relative="1" as="geometry">
            <mxPoint x="580" y="1020" as="sourcePoint" />
            <mxPoint x="630" y="970" as="targetPoint" />
          </mxGeometry>
        </mxCell>
        <mxCell id="37ea-AvrcOFvkeTaKJDR-67" value="Privacy" style="ellipse;whiteSpace=wrap;html=1;fontStyle=0" parent="1" vertex="1">
          <mxGeometry x="540" y="990" width="80" height="20" as="geometry" />
        </mxCell>
        <mxCell id="37ea-AvrcOFvkeTaKJDR-68" value="" style="endArrow=none;html=1;strokeWidth=1;fontSize=11;entryX=0;entryY=0;entryDx=0;entryDy=0;exitX=1;exitY=0.75;exitDx=0;exitDy=0;" parent="1" source="37ea-AvrcOFvkeTaKJDR-2" target="37ea-AvrcOFvkeTaKJDR-67" edge="1">
          <mxGeometry width="50" height="50" relative="1" as="geometry">
            <mxPoint x="480" y="1150" as="sourcePoint" />
            <mxPoint x="530" y="1100" as="targetPoint" />
          </mxGeometry>
        </mxCell>
        <mxCell id="37ea-AvrcOFvkeTaKJDR-69" value="Approves" style="rhombus;whiteSpace=wrap;html=1;fontSize=11;" parent="1" vertex="1">
          <mxGeometry x="160" y="680" width="80" height="80" as="geometry" />
        </mxCell>
        <mxCell id="37ea-AvrcOFvkeTaKJDR-70" value="" style="endArrow=none;html=1;strokeWidth=1;fontSize=11;entryX=1;entryY=0.5;entryDx=0;entryDy=0;exitX=0;exitY=0;exitDx=0;exitDy=0;" parent="1" source="37ea-AvrcOFvkeTaKJDR-69" target="37ea-AvrcOFvkeTaKJDR-5" edge="1">
          <mxGeometry width="50" height="50" relative="1" as="geometry">
            <mxPoint x="220" y="600" as="sourcePoint" />
            <mxPoint x="270" y="550" as="targetPoint" />
          </mxGeometry>
        </mxCell>
        <mxCell id="37ea-AvrcOFvkeTaKJDR-71" value="" style="endArrow=classic;html=1;strokeWidth=1;fontSize=11;entryX=1;entryY=1;entryDx=0;entryDy=0;exitX=0.25;exitY=0;exitDx=0;exitDy=0;startArrow=none;startFill=0;endFill=1;" parent="1" source="37ea-AvrcOFvkeTaKJDR-2" target="37ea-AvrcOFvkeTaKJDR-69" edge="1">
          <mxGeometry width="50" height="50" relative="1" as="geometry">
            <mxPoint x="300" y="810" as="sourcePoint" />
            <mxPoint x="300" y="780" as="targetPoint" />
          </mxGeometry>
        </mxCell>
        <mxCell id="37ea-AvrcOFvkeTaKJDR-76" value="Invited_To" style="rhombus;whiteSpace=wrap;html=1;fontSize=11;" parent="1" vertex="1">
          <mxGeometry x="640" y="680" width="80" height="80" as="geometry" />
        </mxCell>
        <mxCell id="37ea-AvrcOFvkeTaKJDR-77" value="" style="endArrow=none;html=1;strokeWidth=1;fontSize=11;entryX=1;entryY=0.5;entryDx=0;entryDy=0;exitX=0;exitY=0;exitDx=0;exitDy=0;" parent="1" source="37ea-AvrcOFvkeTaKJDR-76" target="37ea-AvrcOFvkeTaKJDR-4" edge="1">
          <mxGeometry width="50" height="50" relative="1" as="geometry">
            <mxPoint x="570" y="650" as="sourcePoint" />
            <mxPoint x="620" y="600" as="targetPoint" />
          </mxGeometry>
        </mxCell>
        <mxCell id="37ea-AvrcOFvkeTaKJDR-78" value="" style="endArrow=none;html=1;strokeWidth=1;fontSize=11;entryX=0;entryY=0.5;entryDx=0;entryDy=0;exitX=1;exitY=0;exitDx=0;exitDy=0;" parent="1" source="37ea-AvrcOFvkeTaKJDR-76" target="37ea-AvrcOFvkeTaKJDR-6" edge="1">
          <mxGeometry width="50" height="50" relative="1" as="geometry">
            <mxPoint x="640" y="610" as="sourcePoint" />
            <mxPoint x="690" y="560" as="targetPoint" />
          </mxGeometry>
        </mxCell>
        <mxCell id="37ea-AvrcOFvkeTaKJDR-79" value="" style="endArrow=none;html=1;strokeWidth=1;fontSize=11;entryX=0;entryY=1;entryDx=0;entryDy=0;exitX=0.75;exitY=0;exitDx=0;exitDy=0;" parent="1" source="37ea-AvrcOFvkeTaKJDR-2" target="37ea-AvrcOFvkeTaKJDR-76" edge="1">
          <mxGeometry width="50" height="50" relative="1" as="geometry">
            <mxPoint x="560" y="780" as="sourcePoint" />
            <mxPoint x="610" y="730" as="targetPoint" />
          </mxGeometry>
        </mxCell>
        <mxCell id="37ea-AvrcOFvkeTaKJDR-80" value="Name" style="ellipse;whiteSpace=wrap;html=1;fontStyle=0" parent="1" vertex="1">
          <mxGeometry x="-80" y="1030" width="80" height="20" as="geometry" />
        </mxCell>
        <mxCell id="37ea-AvrcOFvkeTaKJDR-81" value="" style="endArrow=none;html=1;strokeWidth=1;fontSize=11;entryX=0.5;entryY=1;entryDx=0;entryDy=0;exitX=0.5;exitY=0;exitDx=0;exitDy=0;" parent="1" source="37ea-AvrcOFvkeTaKJDR-80" target="37ea-AvrcOFvkeTaKJDR-3" edge="1">
          <mxGeometry width="50" height="50" relative="1" as="geometry">
            <mxPoint x="-50" y="1120" as="sourcePoint" />
            <mxPoint y="1070" as="targetPoint" />
          </mxGeometry>
        </mxCell>
        <mxCell id="37ea-AvrcOFvkeTaKJDR-82" value="Address" style="ellipse;whiteSpace=wrap;html=1;fontStyle=4" parent="1" vertex="1">
          <mxGeometry x="-180" y="1030" width="80" height="20" as="geometry" />
        </mxCell>
        <mxCell id="37ea-AvrcOFvkeTaKJDR-84" value="" style="endArrow=none;html=1;strokeWidth=1;fontSize=11;entryX=0.25;entryY=1;entryDx=0;entryDy=0;exitX=1;exitY=0;exitDx=0;exitDy=0;" parent="1" source="37ea-AvrcOFvkeTaKJDR-82" target="37ea-AvrcOFvkeTaKJDR-3" edge="1">
          <mxGeometry width="50" height="50" relative="1" as="geometry">
            <mxPoint x="-300" y="1040" as="sourcePoint" />
            <mxPoint x="-250" y="990" as="targetPoint" />
          </mxGeometry>
        </mxCell>
        <mxCell id="37ea-AvrcOFvkeTaKJDR-85" value="Description" style="ellipse;whiteSpace=wrap;html=1;fontStyle=0" parent="1" vertex="1">
          <mxGeometry x="20" y="1030" width="80" height="20" as="geometry" />
        </mxCell>
        <mxCell id="37ea-AvrcOFvkeTaKJDR-86" value="" style="endArrow=none;html=1;strokeWidth=1;fontSize=11;entryX=0;entryY=0;entryDx=0;entryDy=0;exitX=0.75;exitY=1;exitDx=0;exitDy=0;" parent="1" source="37ea-AvrcOFvkeTaKJDR-3" target="37ea-AvrcOFvkeTaKJDR-85" edge="1">
          <mxGeometry width="50" height="50" relative="1" as="geometry">
            <mxPoint x="-30" y="1130" as="sourcePoint" />
            <mxPoint x="20" y="1080" as="targetPoint" />
          </mxGeometry>
        </mxCell>
        <mxCell id="37ea-AvrcOFvkeTaKJDR-87" value="Capacity" style="ellipse;whiteSpace=wrap;html=1;fontStyle=0" parent="1" vertex="1">
          <mxGeometry x="-220" y="1000" width="80" height="20" as="geometry" />
        </mxCell>
        <mxCell id="37ea-AvrcOFvkeTaKJDR-88" value="" style="endArrow=none;html=1;strokeWidth=1;fontSize=11;entryX=0;entryY=0.75;entryDx=0;entryDy=0;exitX=1;exitY=0;exitDx=0;exitDy=0;" parent="1" source="37ea-AvrcOFvkeTaKJDR-87" target="37ea-AvrcOFvkeTaKJDR-3" edge="1">
          <mxGeometry width="50" height="50" relative="1" as="geometry">
            <mxPoint x="-290" y="950" as="sourcePoint" />
            <mxPoint x="-240" y="900" as="targetPoint" />
          </mxGeometry>
        </mxCell>
        <mxCell id="37ea-AvrcOFvkeTaKJDR-89" value="Size" style="ellipse;whiteSpace=wrap;html=1;fontStyle=0" parent="1" vertex="1">
          <mxGeometry x="-220" y="900" width="80" height="20" as="geometry" />
        </mxCell>
        <mxCell id="37ea-AvrcOFvkeTaKJDR-90" value="" style="endArrow=none;html=1;strokeWidth=1;fontSize=11;entryX=1;entryY=1;entryDx=0;entryDy=0;exitX=0;exitY=0.25;exitDx=0;exitDy=0;" parent="1" source="37ea-AvrcOFvkeTaKJDR-3" target="37ea-AvrcOFvkeTaKJDR-89" edge="1">
          <mxGeometry width="50" height="50" relative="1" as="geometry">
            <mxPoint x="-270" y="990" as="sourcePoint" />
            <mxPoint x="-220" y="940" as="targetPoint" />
          </mxGeometry>
        </mxCell>
        <mxCell id="zAwjppEQq2B0mch0xTVI-5" value="ISA" style="triangle;whiteSpace=wrap;html=1;" vertex="1" parent="1">
          <mxGeometry x="640" y="500" width="80" height="80" as="geometry" />
        </mxCell>
        <mxCell id="zAwjppEQq2B0mch0xTVI-6" value="" style="endArrow=none;html=1;strokeWidth=1;entryX=0;entryY=0.5;entryDx=0;entryDy=0;exitX=1;exitY=0.5;exitDx=0;exitDy=0;" edge="1" parent="1" source="zAwjppEQq2B0mch0xTVI-5">
          <mxGeometry width="50" height="50" relative="1" as="geometry">
            <mxPoint x="730" y="550" as="sourcePoint" />
            <mxPoint x="840" y="540" as="targetPoint" />
          </mxGeometry>
        </mxCell>
        <mxCell id="zAwjppEQq2B0mch0xTVI-7" value="" style="endArrow=none;html=1;strokeWidth=1;entryX=0;entryY=0.5;entryDx=0;entryDy=0;exitX=1;exitY=0.5;exitDx=0;exitDy=0;" edge="1" parent="1" target="zAwjppEQq2B0mch0xTVI-5">
          <mxGeometry width="50" height="50" relative="1" as="geometry">
            <mxPoint x="520" y="540" as="sourcePoint" />
            <mxPoint x="670" y="400" as="targetPoint" />
          </mxGeometry>
        </mxCell>
      </root>
    </mxGraphModel>
  </diagram>
</mxfile>
